<svg width="65" height="66" viewBox="0 0 65 66" fill="none" xmlns="http://www.w3.org/2000/svg">
<rect width="65" height="66" fill="#8C9FE1"/>
<path d="M33.832 51V47.88C32.936 49 31.848 49.864 30.568 50.472C29.288 51.048 27.88 51.336 26.344 51.336C24.84 51.336 23.416 51.032 22.072 50.424C20.76 49.784 19.624 48.936 18.664 47.88C17.704 46.792 16.936 45.512 16.36 44.04C15.816 42.568 15.544 41 15.544 39.336C15.544 37.64 15.816 36.056 16.36 34.584C16.936 33.112 17.72 31.848 18.712 30.792C19.704 29.704 20.872 28.856 22.216 28.248C23.56 27.608 25 27.288 26.536 27.288C27.976 27.288 29.32 27.576 30.568 28.152C31.816 28.696 32.904 29.496 33.832 30.552V16.68L37.336 15.96V51H33.832ZM19 39.288C19 41.848 19.784 43.992 21.352 45.72C22.92 47.416 24.872 48.264 27.208 48.264C28.584 48.264 29.848 47.992 31 47.448C32.152 46.904 33.096 46.136 33.832 45.144V33.528C33.064 32.536 32.088 31.768 30.904 31.224C29.752 30.648 28.52 30.36 27.208 30.36C24.872 30.36 22.92 31.208 21.352 32.904C19.784 34.6 19 36.728 19 39.288Z" fill="#2C2B34"/>
<path d="M38.832 51V47.88C37.936 49 36.848 49.864 35.568 50.472C34.288 51.048 32.88 51.336 31.344 51.336C29.84 51.336 28.416 51.032 27.072 50.424C25.76 49.784 24.624 48.936 23.664 47.88C22.704 46.792 21.936 45.512 21.36 44.04C20.816 42.568 20.544 41 20.544 39.336C20.544 37.64 20.816 36.056 21.36 34.584C21.936 33.112 22.72 31.848 23.712 30.792C24.704 29.704 25.872 28.856 27.216 28.248C28.56 27.608 30 27.288 31.536 27.288C32.976 27.288 34.32 27.576 35.568 28.152C36.816 28.696 37.904 29.496 38.832 30.552V16.68L42.336 15.96V51H38.832ZM24 39.288C24 41.848 24.784 43.992 26.352 45.72C27.92 47.416 29.872 48.264 32.208 48.264C33.584 48.264 34.848 47.992 36 47.448C37.152 46.904 38.096 46.136 38.832 45.144V33.528C38.064 32.536 37.088 31.768 35.904 31.224C34.752 30.648 33.52 30.36 32.208 30.36C29.872 30.36 27.92 31.208 26.352 32.904C24.784 34.6 24 36.728 24 39.288Z" fill="white"/>
</svg>
