<svg width="87" height="54" viewBox="0 0 87 54" fill="none" xmlns="http://www.w3.org/2000/svg">
<rect y="10" width="87" height="44" fill="#8C9FE1"/>
<path d="M23.832 49V45.88C22.936 47 21.848 47.864 20.568 48.472C19.288 49.048 17.88 49.336 16.344 49.336C14.84 49.336 13.416 49.032 12.072 48.424C10.76 47.784 9.624 46.936 8.664 45.88C7.704 44.792 6.936 43.512 6.36 42.04C5.816 40.568 5.544 39 5.544 37.336C5.544 35.64 5.816 34.056 6.36 32.584C6.936 31.112 7.72 29.848 8.712 28.792C9.704 27.704 10.872 26.856 12.216 26.248C13.56 25.608 15 25.288 16.536 25.288C17.976 25.288 19.32 25.576 20.568 26.152C21.816 26.696 22.904 27.496 23.832 28.552V14.68L27.336 13.96V49H23.832ZM9 37.288C9 39.848 9.784 41.992 11.352 43.72C12.92 45.416 14.872 46.264 17.208 46.264C18.584 46.264 19.848 45.992 21 45.448C22.152 44.904 23.096 44.136 23.832 43.144V31.528C23.064 30.536 22.088 29.768 20.904 29.224C19.752 28.648 18.52 28.36 17.208 28.36C14.872 28.36 12.92 29.208 11.352 30.904C9.784 32.6 9 34.728 9 37.288ZM45.2415 46.264C46.5215 46.264 47.7215 46.024 48.8415 45.544C49.9935 45.064 50.9695 44.376 51.7695 43.48L53.9295 45.64C52.8095 46.824 51.4655 47.752 49.8975 48.424C48.3615 49.096 46.7455 49.432 45.0495 49.432C43.4495 49.432 41.9295 49.128 40.4895 48.52C39.0815 47.88 37.8655 47.016 36.8415 45.928C35.8175 44.84 35.0015 43.56 34.3935 42.088C33.7855 40.584 33.4815 38.984 33.4815 37.288C33.4815 35.592 33.7695 34.008 34.3455 32.536C34.9535 31.064 35.7695 29.784 36.7935 28.696C37.8495 27.608 39.0815 26.76 40.4895 26.152C41.8975 25.512 43.4175 25.192 45.0495 25.192C46.7775 25.192 48.4255 25.512 49.9935 26.152C51.5615 26.792 52.9215 27.688 54.0735 28.84L51.8175 31.288C50.9855 30.392 49.9775 29.688 48.7935 29.176C47.6095 28.632 46.4095 28.36 45.1935 28.36C44.0415 28.36 42.9535 28.6 41.9295 29.08C40.9375 29.528 40.0735 30.152 39.3375 30.952C38.6335 31.752 38.0575 32.696 37.6095 33.784C37.1935 34.872 36.9855 36.04 36.9855 37.288C36.9855 39.816 37.7855 41.944 39.3855 43.672C40.9855 45.4 42.9375 46.264 45.2415 46.264ZM57.1721 25.576H62.4041V20.44C62.4041 18.136 63.0121 16.36 64.2281 15.112C65.4441 13.864 67.1721 13.24 69.4121 13.24C70.0521 13.24 70.6281 13.288 71.1401 13.384C71.6841 13.448 72.1641 13.544 72.5801 13.672V16.84C72.0681 16.712 71.5881 16.616 71.1401 16.552C70.7241 16.456 70.2601 16.408 69.7481 16.408C68.4041 16.408 67.4281 16.744 66.8201 17.416C66.2121 18.088 65.9081 19.112 65.9081 20.488V25.576H72.5801V28.456H65.9081V49H62.4041V28.456H57.1721V25.576Z" fill="#2C2B34"/>
<path d="M28.832 49V45.88C27.936 47 26.848 47.864 25.568 48.472C24.288 49.048 22.88 49.336 21.344 49.336C19.84 49.336 18.416 49.032 17.072 48.424C15.76 47.784 14.624 46.936 13.664 45.88C12.704 44.792 11.936 43.512 11.36 42.04C10.816 40.568 10.544 39 10.544 37.336C10.544 35.64 10.816 34.056 11.36 32.584C11.936 31.112 12.72 29.848 13.712 28.792C14.704 27.704 15.872 26.856 17.216 26.248C18.56 25.608 20 25.288 21.536 25.288C22.976 25.288 24.32 25.576 25.568 26.152C26.816 26.696 27.904 27.496 28.832 28.552V14.68L32.336 13.96V49H28.832ZM14 37.288C14 39.848 14.784 41.992 16.352 43.72C17.92 45.416 19.872 46.264 22.208 46.264C23.584 46.264 24.848 45.992 26 45.448C27.152 44.904 28.096 44.136 28.832 43.144V31.528C28.064 30.536 27.088 29.768 25.904 29.224C24.752 28.648 23.52 28.36 22.208 28.36C19.872 28.36 17.92 29.208 16.352 30.904C14.784 32.6 14 34.728 14 37.288ZM50.2415 46.264C51.5215 46.264 52.7215 46.024 53.8415 45.544C54.9935 45.064 55.9695 44.376 56.7695 43.48L58.9295 45.64C57.8095 46.824 56.4655 47.752 54.8975 48.424C53.3615 49.096 51.7455 49.432 50.0495 49.432C48.4495 49.432 46.9295 49.128 45.4895 48.52C44.0815 47.88 42.8655 47.016 41.8415 45.928C40.8175 44.84 40.0015 43.56 39.3935 42.088C38.7855 40.584 38.4815 38.984 38.4815 37.288C38.4815 35.592 38.7695 34.008 39.3455 32.536C39.9535 31.064 40.7695 29.784 41.7935 28.696C42.8495 27.608 44.0815 26.76 45.4895 26.152C46.8975 25.512 48.4175 25.192 50.0495 25.192C51.7775 25.192 53.4255 25.512 54.9935 26.152C56.5615 26.792 57.9215 27.688 59.0735 28.84L56.8175 31.288C55.9855 30.392 54.9775 29.688 53.7935 29.176C52.6095 28.632 51.4095 28.36 50.1935 28.36C49.0415 28.36 47.9535 28.6 46.9295 29.08C45.9375 29.528 45.0735 30.152 44.3375 30.952C43.6335 31.752 43.0575 32.696 42.6095 33.784C42.1935 34.872 41.9855 36.04 41.9855 37.288C41.9855 39.816 42.7855 41.944 44.3855 43.672C45.9855 45.4 47.9375 46.264 50.2415 46.264ZM62.1721 25.576H67.4041V20.44C67.4041 18.136 68.0121 16.36 69.2281 15.112C70.4441 13.864 72.1721 13.24 74.4121 13.24C75.0521 13.24 75.6281 13.288 76.1401 13.384C76.6841 13.448 77.1641 13.544 77.5801 13.672V16.84C77.0681 16.712 76.5881 16.616 76.1401 16.552C75.7241 16.456 75.2601 16.408 74.7481 16.408C73.4041 16.408 72.4281 16.744 71.8201 17.416C71.2121 18.088 70.9081 19.112 70.9081 20.488V25.576H77.5801V28.456H70.9081V49H67.4041V28.456H62.1721V25.576Z" fill="white"/>
</svg>
